<?xml version="1.0" encoding="UTF-8" standalone="no"?>
<!-- Created with Inkscape (http://www.inkscape.org/) -->

<svg
   xmlns:dc="http://purl.org/dc/elements/1.1/"
   xmlns:cc="http://creativecommons.org/ns#"
   xmlns:rdf="http://www.w3.org/1999/02/22-rdf-syntax-ns#"
   xmlns:svg="http://www.w3.org/2000/svg"
   xmlns="http://www.w3.org/2000/svg"
   xmlns:xlink="http://www.w3.org/1999/xlink"
   xmlns:sodipodi="http://sodipodi.sourceforge.net/DTD/sodipodi-0.dtd"
   xmlns:inkscape="http://www.inkscape.org/namespaces/inkscape"
   width="243"
   height="89"
   viewBox="0 0 243 88.999996"
   id="svg5365"
   version="1.1"
   inkscape:version="0.91 r13725"
   sodipodi:docname="logo_face_non_vector.svg">
  <defs
     id="defs5367">
    <clipPath
       clipPathUnits="userSpaceOnUse"
       id="clipPath4175">
      <path
         d="m 104.315,184.252 701.574,0 0,264.709 -701.574,0 0,-264.709 z"
         id="path4177"
         inkscape:connector-curvature="0" />
    </clipPath>
  </defs>
  <sodipodi:namedview
     id="base"
     pagecolor="#ffffff"
     bordercolor="#666666"
     borderopacity="1.0"
     inkscape:pageopacity="0.0"
     inkscape:pageshadow="2"
     inkscape:zoom="1.6513708"
     inkscape:cx="151.78915"
     inkscape:cy="64.161445"
     inkscape:document-units="px"
     inkscape:current-layer="layer1"
     showgrid="false"
     units="px"
     inkscape:snap-page="true"
     inkscape:snap-object-midpoints="true"
     inkscape:window-width="1301"
     inkscape:window-height="744"
     inkscape:window-x="65"
     inkscape:window-y="24"
     inkscape:window-maximized="1" />
  <metadata
     id="metadata5370">
    <rdf:RDF>
      <cc:Work
         rdf:about="">
        <dc:format>image/svg+xml</dc:format>
        <dc:type
           rdf:resource="http://purl.org/dc/dcmitype/StillImage" />
        <dc:title />
      </cc:Work>
    </rdf:RDF>
  </metadata>
  <g
     inkscape:label="Calque 1"
     inkscape:groupmode="layer"
     id="layer1"
     transform="translate(0,-963.36223)">
    <g
       transform="matrix(1.25,0,0,-1.25,95.401823,964.83564)"
       id="g4171">
      <g
         id="g4173"
         clip-path="url(#clipPath4175)">
        <g
           id="g4179"
           transform="translate(122.455,358.3262)">
          <path
             d="m 0,0 c 0,-0.264 0.028,-0.42 0.081,-0.471 0.042,-0.039 0.094,-0.064 0.16,-0.072 0.066,-0.008 0.214,-0.015 0.443,-0.015 l 0.591,0 c 0.311,0 0.521,0.043 0.623,0.123 0.103,0.082 0.155,0.249 0.155,0.499 C 2.053,0.13 2.05,0.208 2.046,0.293 2.038,0.468 2.033,0.572 2.033,0.609 2.033,0.803 2.111,0.9 2.271,0.9 2.459,0.9 2.554,0.81 2.554,0.631 2.554,0.576 2.55,0.535 2.546,0.502 L 2.497,0.158 C 2.484,0.059 2.476,-0.043 2.476,-0.154 c 0,-0.061 0.008,-0.155 0.017,-0.278 0.012,-0.123 0.02,-0.217 0.02,-0.28 0,-0.203 -0.114,-0.303 -0.343,-0.303 -0.046,0 -0.153,0.009 -0.313,0.023 -0.107,0.006 -0.275,0.016 -0.5,0.022 l -0.504,0 -1.083,0 c -0.107,0 -0.287,-0.008 -0.537,-0.026 -0.037,0 -0.099,-0.002 -0.189,-0.01 -0.086,-0.005 -0.157,-0.009 -0.205,-0.009 -0.189,0 -0.282,0.078 -0.282,0.242 0,0.144 0.069,0.215 0.208,0.215 0.037,0 0.091,-0.006 0.16,-0.02 0.074,-0.013 0.127,-0.019 0.165,-0.019 0.228,0 0.344,0.168 0.344,0.505 l 0,2.708 c 0,0.33 -0.116,0.499 -0.344,0.499 -0.063,0 -0.112,-0.005 -0.141,-0.013 -0.073,-0.014 -0.134,-0.02 -0.184,-0.02 -0.057,0 -0.106,0.02 -0.148,0.063 -0.04,0.043 -0.06,0.097 -0.06,0.159 0,0.157 0.093,0.237 0.289,0.237 0.026,0 0.063,-0.002 0.103,-0.008 l 0.357,-0.041 c 0.198,-0.02 0.341,-0.033 0.439,-0.033 0.115,0 0.259,0.013 0.43,0.033 l 0.312,0.041 c 0.034,0.006 0.066,0.008 0.086,0.008 0.205,0 0.304,-0.08 0.304,-0.237 C 0.877,3.242 0.856,3.188 0.816,3.145 0.778,3.102 0.726,3.082 0.668,3.082 0.623,3.082 0.566,3.088 0.487,3.102 0.455,3.11 0.405,3.115 0.344,3.115 0.114,3.115 0,2.951 0,2.619 L 0,0 Z"
             style="fill:#fff;fill-opacity:1;fill-rule:nonzero;stroke:none"
             id="path4181"
             inkscape:connector-curvature="0" />
        </g>
        <g
           id="g4183"
           transform="translate(126.0548,359.4969)">
          <path
             d="m 0,0 c 0,-0.062 0.05,-0.094 0.148,-0.094 l 1.62,0 c 0.093,0 0.144,0.032 0.144,0.094 0,0.238 -0.091,0.447 -0.275,0.622 C 1.457,0.796 1.246,0.884 1.001,0.884 0.751,0.884 0.517,0.793 0.312,0.611 0.103,0.429 0,0.226 0,0 M 2.449,-0.168 C 2.449,-0.34 2.44,-0.445 2.415,-0.484 2.395,-0.52 2.325,-0.539 2.218,-0.539 l -2.153,0 c -0.056,0 -0.097,-0.009 -0.114,-0.026 -0.016,-0.015 -0.025,-0.042 -0.025,-0.077 0,-0.339 0.099,-0.62 0.304,-0.848 0.201,-0.227 0.454,-0.338 0.758,-0.338 0.197,0 0.381,0.053 0.546,0.16 0.164,0.11 0.271,0.245 0.32,0.414 l 0.061,0.197 c 0.034,0.105 0.107,0.16 0.222,0.16 0.168,0 0.254,-0.087 0.254,-0.257 0,-0.294 -0.151,-0.552 -0.446,-0.78 -0.301,-0.226 -0.636,-0.342 -1.014,-0.342 -0.473,0 -0.848,0.16 -1.127,0.476 -0.279,0.32 -0.419,0.744 -0.419,1.281 0,0.548 0.147,0.995 0.447,1.335 C 0.128,1.159 0.514,1.33 0.993,1.33 1.415,1.33 1.764,1.19 2.038,0.907 2.313,0.624 2.449,0.265 2.449,-0.168"
             style="fill:#fff;fill-opacity:1;fill-rule:nonzero;stroke:none"
             id="path4185"
             inkscape:connector-curvature="0" />
        </g>
        <g
           id="g4187"
           transform="translate(130.4224,360.8264)">
          <path
             d="m 0,0 c 0.303,0 0.554,-0.078 0.754,-0.237 l 0,0.027 c 0,0.168 0.074,0.25 0.218,0.25 0.147,0 0.221,-0.072 0.221,-0.213 0,-0.029 -0.004,-0.098 -0.008,-0.204 C 1.169,-0.469 1.16,-0.558 1.16,-0.649 c 0,-0.053 0.004,-0.13 0.017,-0.233 0.012,-0.106 0.016,-0.183 0.016,-0.238 0,-0.172 -0.074,-0.255 -0.216,-0.255 -0.145,0 -0.219,0.07 -0.223,0.215 l 0,0.223 c -0.003,0.135 -0.082,0.249 -0.233,0.345 -0.152,0.099 -0.328,0.146 -0.533,0.146 -0.205,0 -0.382,-0.05 -0.521,-0.157 -0.139,-0.105 -0.209,-0.238 -0.209,-0.394 0,-0.289 0.196,-0.46 0.594,-0.512 l 0.394,-0.057 c 0.767,-0.103 1.152,-0.421 1.152,-0.952 0,-0.325 -0.127,-0.585 -0.372,-0.786 -0.248,-0.198 -0.571,-0.301 -0.969,-0.301 -0.372,0 -0.697,0.106 -0.972,0.32 l 0,-0.13 c 0,-0.162 -0.073,-0.243 -0.229,-0.243 -0.164,0 -0.246,0.092 -0.246,0.277 0,-0.032 0.012,0.085 0.041,0.349 0.008,0.065 0.013,0.128 0.013,0.189 0,0.109 -0.009,0.209 -0.029,0.306 -0.017,0.094 -0.025,0.17 -0.025,0.224 0,0.156 0.07,0.233 0.214,0.233 0.098,0 0.154,-0.02 0.18,-0.066 0.024,-0.045 0.036,-0.164 0.045,-0.358 0.004,-0.193 0.102,-0.351 0.303,-0.474 0.197,-0.119 0.447,-0.18 0.755,-0.18 0.221,0 0.402,0.055 0.545,0.168 0.148,0.113 0.219,0.254 0.219,0.427 0,0.304 -0.243,0.481 -0.731,0.532 -0.464,0.05 -0.816,0.14 -1.059,0.273 -0.241,0.134 -0.365,0.367 -0.365,0.699 0,0.316 0.119,0.571 0.357,0.766 C -0.689,-0.099 -0.381,0 0,0"
             style="fill:#fff;fill-opacity:1;fill-rule:nonzero;stroke:none"
             id="path4189"
             inkscape:connector-curvature="0" />
        </g>
        <g
           id="g4191"
           transform="translate(134.6264,359.4969)">
          <path
             d="m 0,0 c 0,-0.062 0.049,-0.094 0.152,-0.094 l 1.616,0 C 1.866,-0.094 1.91,-0.062 1.91,0 1.91,0.238 1.82,0.447 1.64,0.622 1.459,0.796 1.246,0.884 1.004,0.884 0.751,0.884 0.521,0.793 0.312,0.611 0.102,0.429 0,0.226 0,0 M 2.453,-0.168 C 2.453,-0.34 2.44,-0.445 2.415,-0.484 2.394,-0.52 2.33,-0.539 2.222,-0.539 l -2.153,0 c -0.061,0 -0.098,-0.009 -0.114,-0.026 -0.02,-0.015 -0.03,-0.042 -0.03,-0.077 0,-0.339 0.103,-0.62 0.304,-0.848 0.204,-0.227 0.459,-0.338 0.759,-0.338 0.2,0 0.381,0.053 0.546,0.16 0.163,0.11 0.274,0.245 0.323,0.414 l 0.058,0.197 c 0.033,0.105 0.107,0.16 0.225,0.16 0.168,0 0.25,-0.087 0.25,-0.257 0,-0.294 -0.148,-0.552 -0.446,-0.78 C 1.647,-2.16 1.312,-2.276 0.93,-2.276 c -0.472,0 -0.844,0.16 -1.123,0.476 -0.283,0.32 -0.423,0.744 -0.423,1.281 0,0.548 0.153,0.995 0.447,1.335 0.3,0.343 0.686,0.514 1.161,0.514 0.423,0 0.776,-0.14 1.05,-0.423 0.271,-0.283 0.411,-0.642 0.411,-1.075"
             style="fill:#fff;fill-opacity:1;fill-rule:nonzero;stroke:none"
             id="path4193"
             inkscape:connector-curvature="0" />
        </g>
        <g
           id="g4195"
           transform="translate(138.6077,360.5058)">
          <path
             d="M 0,0 0,-0.193 C 0.275,0.15 0.632,0.32 1.083,0.32 1.324,0.32 1.555,0.259 1.772,0.136 1.986,0.013 2.132,-0.143 2.21,-0.328 2.272,-0.48 2.305,-0.678 2.305,-0.927 l 0,-1.283 c 0,-0.193 0,-0.307 0.008,-0.346 0.021,-0.153 0.083,-0.228 0.181,-0.228 0.041,0 0.094,0.004 0.16,0.016 0.061,0.013 0.11,0.016 0.135,0.016 0.061,0 0.111,-0.019 0.152,-0.059 0.045,-0.038 0.065,-0.09 0.065,-0.15 0,-0.067 -0.024,-0.123 -0.081,-0.168 -0.055,-0.045 -0.119,-0.066 -0.193,-0.066 -0.067,0 -0.169,0.009 -0.313,0.027 -0.142,0.019 -0.278,0.026 -0.405,0.026 -0.115,0 -0.214,-0.004 -0.291,-0.013 -0.226,-0.027 -0.344,-0.04 -0.357,-0.04 -0.181,0 -0.271,0.078 -0.271,0.234 0,0.142 0.079,0.209 0.234,0.209 0.037,0 0.078,-0.003 0.123,-0.012 0.09,-0.019 0.143,-0.029 0.168,-0.029 0.111,0 0.169,0.128 0.176,0.374 l 0,0.344 0,0.41 0,0.513 c 0,0.242 -0.007,0.406 -0.032,0.496 -0.041,0.17 -0.127,0.303 -0.263,0.396 -0.148,0.104 -0.316,0.155 -0.504,0.155 -0.357,0 -0.616,-0.126 -0.771,-0.383 C 0.119,-0.665 0.062,-0.963 0.062,-1.386 l 0,-0.898 c 0,-0.197 0.017,-0.332 0.041,-0.405 0.028,-0.071 0.077,-0.108 0.146,-0.108 0.038,0 0.088,0.008 0.148,0.023 0.067,0.014 0.12,0.022 0.161,0.022 0.14,0 0.209,-0.074 0.209,-0.225 0,-0.146 -0.094,-0.218 -0.27,-0.218 -0.039,0 -0.156,0.013 -0.353,0.04 -0.099,0.013 -0.209,0.02 -0.333,0.02 -0.093,0 -0.217,-0.008 -0.376,-0.027 -0.197,-0.023 -0.308,-0.033 -0.337,-0.033 -0.189,0 -0.282,0.075 -0.282,0.23 0,0.144 0.074,0.213 0.217,0.213 0.024,0 0.065,-0.006 0.126,-0.019 0.063,-0.013 0.123,-0.022 0.186,-0.022 0.134,0 0.209,0.133 0.212,0.394 l 0,0.751 0,0.815 0,0.235 c -0.008,0.155 -0.028,0.258 -0.057,0.316 -0.033,0.056 -0.082,0.083 -0.155,0.083 -0.034,0 -0.079,-0.006 -0.14,-0.017 -0.066,-0.015 -0.111,-0.022 -0.143,-0.022 -0.165,0 -0.246,0.074 -0.246,0.22 0,0.15 0.102,0.223 0.302,0.223 0.029,0 0.05,-0.001 0.067,-0.006 l 0.25,-0.027 c 0.073,0 0.135,0.006 0.188,0.018 0.119,0.011 0.181,0.015 0.184,0.015 C -0.065,0.205 0,0.138 0,0"
             style="fill:#fff;fill-opacity:1;fill-rule:nonzero;stroke:none"
             id="path4197"
             inkscape:connector-curvature="0" />
        </g>
        <g
           id="g4199"
           transform="translate(143.7544,358.2689)">
          <path
             d="m 0,0 0,0.432 c 0.005,0.185 0.087,0.277 0.242,0.277 0.161,0 0.238,-0.104 0.238,-0.312 0,-0.489 -0.066,-0.832 -0.188,-1.027 -0.173,-0.258 -0.453,-0.39 -0.837,-0.39 -0.362,0 -0.615,0.116 -0.767,0.345 -0.111,0.167 -0.168,0.449 -0.168,0.849 l 0,1.62 c 0,0.094 -0.04,0.144 -0.132,0.144 l -0.221,0 c -0.069,0 -0.132,0.024 -0.18,0.07 -0.05,0.047 -0.075,0.104 -0.075,0.172 0,0.062 0.025,0.121 0.071,0.167 0.049,0.051 0.102,0.077 0.16,0.077 l 0.262,0 c 0.078,0 0.115,0.043 0.115,0.127 l 0,0.694 c 0,0.173 0.09,0.259 0.267,0.259 0.159,0 0.241,-0.086 0.241,-0.259 l 0,-0.721 c 0,-0.066 0.042,-0.1 0.119,-0.1 l 0.739,0 c 0.172,0 0.254,-0.08 0.254,-0.236 0,-0.168 -0.091,-0.25 -0.276,-0.25 l -0.741,0 c -0.062,0 -0.095,-0.05 -0.095,-0.144 l 0,-1.659 c 0,-0.473 0.156,-0.709 0.473,-0.709 0.319,0 0.483,0.189 0.499,0.574"
             style="fill:#fff;fill-opacity:1;fill-rule:nonzero;stroke:none"
             id="path4201"
             inkscape:connector-curvature="0" />
        </g>
        <g
           id="g4203"
           transform="translate(145.5961,360.5202)">
          <path
             d="M 0,0 0,-0.186 C 0.234,0.141 0.546,0.306 0.938,0.306 1.255,0.306 1.509,0.219 1.706,0.041 1.902,-0.138 2,-0.367 2,-0.644 2,-0.842 1.952,-1.003 1.849,-1.128 1.75,-1.253 1.619,-1.314 1.46,-1.314 c -0.107,0 -0.193,0.033 -0.262,0.097 -0.074,0.06 -0.112,0.138 -0.112,0.227 0,0.074 0.029,0.137 0.083,0.193 0.053,0.057 0.115,0.086 0.189,0.086 0.012,0 0.04,-0.009 0.09,-0.021 0.024,0.053 0.036,0.104 0.036,0.148 0,0.131 -0.057,0.242 -0.172,0.332 -0.114,0.088 -0.258,0.133 -0.426,0.133 -0.353,0 -0.587,-0.158 -0.702,-0.471 C 0.111,-0.785 0.073,-1.076 0.073,-1.468 l 0,-0.445 c 0,-0.304 0.005,-0.471 0.009,-0.509 0.025,-0.256 0.094,-0.385 0.213,-0.385 0.057,0 0.119,0.01 0.18,0.024 0.054,0.014 0.095,0.017 0.131,0.017 0.145,0 0.218,-0.069 0.218,-0.211 0,-0.154 -0.095,-0.232 -0.278,-0.232 l -0.025,0 c -0.066,0 -0.169,0.009 -0.308,0.023 -0.135,0.015 -0.238,0.022 -0.307,0.022 -0.18,0 -0.32,-0.004 -0.423,-0.012 l -0.382,-0.033 c -0.184,0 -0.274,0.078 -0.274,0.234 0,0.141 0.086,0.209 0.258,0.209 0.045,0 0.079,0 0.103,-0.006 l 0.102,-0.019 c 0.046,-0.012 0.074,-0.016 0.095,-0.016 0.115,0 0.175,0.104 0.184,0.312 l 0,0.344 -0.02,1.534 c -0.012,0.264 -0.083,0.398 -0.201,0.398 -0.037,0 -0.086,-0.004 -0.152,-0.017 -0.061,-0.012 -0.111,-0.016 -0.148,-0.016 -0.147,0 -0.221,0.07 -0.221,0.211 0,0.154 0.094,0.232 0.287,0.232 0.05,0 0.115,-0.004 0.206,-0.016 0.089,-0.011 0.155,-0.017 0.2,-0.017 0.037,0 0.094,0.006 0.177,0.017 0.036,0.012 0.077,0.016 0.131,0.016 C -0.057,0.191 0,0.13 0,0"
             style="fill:#fff;fill-opacity:1;fill-rule:nonzero;stroke:none"
             id="path4205"
             inkscape:connector-curvature="0" />
        </g>
        <g
           id="g4207"
           transform="translate(148.5076,359.4969)">
          <path
             d="m 0,0 c 0,-0.062 0.049,-0.094 0.147,-0.094 l 1.621,0 c 0.094,0 0.143,0.032 0.143,0.094 0,0.238 -0.09,0.447 -0.27,0.622 C 1.456,0.796 1.247,0.884 1.001,0.884 0.746,0.884 0.517,0.793 0.312,0.611 0.103,0.429 0,0.226 0,0 M 2.448,-0.168 C 2.448,-0.34 2.435,-0.445 2.415,-0.484 2.395,-0.52 2.325,-0.539 2.218,-0.539 l -2.153,0 c -0.056,0 -0.094,-0.009 -0.115,-0.026 -0.015,-0.015 -0.024,-0.042 -0.024,-0.077 0,-0.339 0.099,-0.62 0.304,-0.848 0.205,-0.227 0.455,-0.338 0.758,-0.338 0.197,0 0.381,0.053 0.545,0.16 0.165,0.11 0.271,0.245 0.32,0.414 l 0.062,0.197 c 0.033,0.105 0.107,0.16 0.222,0.16 0.168,0 0.25,-0.087 0.25,-0.257 0,-0.294 -0.148,-0.552 -0.443,-0.78 C 1.648,-2.16 1.308,-2.276 0.93,-2.276 c -0.471,0 -0.848,0.16 -1.126,0.476 -0.28,0.32 -0.419,0.744 -0.419,1.281 0,0.548 0.147,0.995 0.447,1.335 0.295,0.343 0.68,0.514 1.16,0.514 0.423,0 0.772,-0.14 1.047,-0.423 0.274,-0.283 0.409,-0.642 0.409,-1.075"
             style="fill:#fff;fill-opacity:1;fill-rule:nonzero;stroke:none"
             id="path4209"
             inkscape:connector-curvature="0" />
        </g>
        <g
           id="g4211"
           transform="translate(152.5922,359.6945)">
          <path
             d="m 0,0 c -0.04,-0.177 -0.065,-0.391 -0.069,-0.642 0,-0.018 0,-0.052 -0.009,-0.103 l 0,-0.092 c 0,-0.304 0.028,-0.521 0.078,-0.66 0.049,-0.135 0.147,-0.258 0.295,-0.369 0.144,-0.107 0.328,-0.16 0.546,-0.16 0.323,0 0.574,0.118 0.754,0.355 0.177,0.235 0.267,0.571 0.267,1.006 0,0.903 -0.32,1.352 -0.964,1.352 C 0.68,0.687 0.488,0.624 0.319,0.492 0.152,0.36 0.045,0.197 0,0 m -0.102,0.824 0,-0.218 c 0.249,0.353 0.598,0.526 1.032,0.526 0.448,0 0.809,-0.154 1.075,-0.464 0.263,-0.312 0.399,-0.733 0.399,-1.263 0,-0.571 -0.145,-1.027 -0.424,-1.368 -0.282,-0.339 -0.66,-0.51 -1.131,-0.51 -0.39,0 -0.71,0.139 -0.951,0.414 l 0,-0.563 c 0,-0.171 0.004,-0.28 0.012,-0.329 0.028,-0.139 0.094,-0.21 0.197,-0.21 0.032,0 0.078,0.007 0.143,0.021 0.062,0.013 0.106,0.019 0.14,0.019 0.143,0 0.217,-0.074 0.217,-0.222 0,-0.149 -0.095,-0.223 -0.284,-0.223 -0.065,0 -0.168,0.009 -0.302,0.027 -0.099,0.014 -0.247,0.02 -0.443,0.02 -0.107,0 -0.197,-0.005 -0.271,-0.013 -0.177,-0.022 -0.295,-0.034 -0.357,-0.034 -0.074,0 -0.139,0.024 -0.193,0.066 -0.053,0.051 -0.082,0.104 -0.082,0.168 0,0.141 0.074,0.211 0.23,0.211 0.025,0 0.066,-0.004 0.123,-0.016 0.078,-0.017 0.135,-0.024 0.168,-0.024 0.086,0 0.14,0.043 0.16,0.132 0.02,0.088 0.033,0.332 0.033,0.732 l 0,2.606 c 0,0.208 -0.062,0.31 -0.173,0.31 -0.028,0 -0.077,-0.008 -0.143,-0.023 -0.065,-0.016 -0.114,-0.023 -0.152,-0.023 -0.164,0 -0.246,0.074 -0.246,0.222 0,0.143 0.098,0.215 0.296,0.215 0.053,0 0.107,-0.001 0.163,-0.006 0.112,-0.008 0.197,-0.012 0.251,-0.012 0.041,0 0.098,0.002 0.176,0.009 0.074,0.008 0.132,0.009 0.168,0.009 0.111,0 0.169,-0.061 0.169,-0.186"
             style="fill:#fff;fill-opacity:1;fill-rule:nonzero;stroke:none"
             id="path4213"
             inkscape:connector-curvature="0" />
        </g>
        <g
           id="g4215"
           transform="translate(156.5252,360.5202)">
          <path
             d="m 0,0 0,-0.186 c 0.234,0.327 0.549,0.492 0.939,0.492 0.315,0 0.57,-0.087 0.767,-0.265 0.196,-0.179 0.295,-0.408 0.295,-0.685 0,-0.198 -0.05,-0.359 -0.152,-0.484 -0.099,-0.125 -0.23,-0.186 -0.389,-0.186 -0.102,0 -0.193,0.033 -0.262,0.097 -0.074,0.06 -0.112,0.138 -0.112,0.227 0,0.074 0.029,0.137 0.082,0.193 0.053,0.057 0.119,0.086 0.19,0.086 0.016,0 0.045,-0.009 0.09,-0.021 0.024,0.053 0.037,0.104 0.037,0.148 0,0.131 -0.054,0.242 -0.169,0.332 C 1.201,-0.164 1.058,-0.119 0.885,-0.119 0.533,-0.119 0.3,-0.277 0.184,-0.59 0.111,-0.785 0.073,-1.076 0.073,-1.468 l 0,-0.445 c 0,-0.304 0.005,-0.471 0.009,-0.509 0.024,-0.256 0.093,-0.385 0.213,-0.385 0.058,0 0.119,0.01 0.185,0.024 0.049,0.014 0.09,0.017 0.127,0.017 0.144,0 0.217,-0.069 0.217,-0.211 0,-0.154 -0.09,-0.232 -0.275,-0.232 l -0.028,0 c -0.067,0 -0.168,0.009 -0.308,0.023 -0.135,0.015 -0.238,0.022 -0.308,0.022 -0.179,0 -0.319,-0.004 -0.422,-0.012 l -0.382,-0.033 c -0.184,0 -0.274,0.078 -0.274,0.234 0,0.141 0.086,0.209 0.258,0.209 0.045,0 0.078,0 0.103,-0.006 l 0.102,-0.019 c 0.045,-0.012 0.079,-0.016 0.094,-0.016 0.116,0 0.176,0.104 0.186,0.312 l 0,0.344 -0.021,1.534 c -0.012,0.264 -0.083,0.398 -0.205,0.398 -0.033,0 -0.082,-0.004 -0.149,-0.017 -0.061,-0.012 -0.11,-0.016 -0.147,-0.016 -0.147,0 -0.221,0.07 -0.221,0.211 0,0.154 0.094,0.232 0.291,0.232 0.045,0 0.11,-0.004 0.201,-0.016 0.09,-0.011 0.156,-0.017 0.201,-0.017 0.037,0 0.099,0.006 0.177,0.017 0.036,0.012 0.077,0.016 0.126,0.016 C -0.058,0.191 0,0.13 0,0"
             style="fill:#fff;fill-opacity:1;fill-rule:nonzero;stroke:none"
             id="path4217"
             inkscape:connector-curvature="0" />
        </g>
        <g
           id="g4219"
           transform="translate(159.5638,361.0634)">
          <path
             d="m 0,0 c -0.103,0 -0.193,0.038 -0.267,0.111 -0.073,0.074 -0.111,0.164 -0.111,0.267 0,0.104 0.038,0.192 0.111,0.264 C -0.193,0.713 -0.103,0.751 0,0.751 0.103,0.751 0.193,0.713 0.267,0.642 0.341,0.57 0.377,0.482 0.377,0.378 0.377,0.275 0.341,0.185 0.267,0.111 0.193,0.038 0.103,0 0,0 m 0.353,-1.767 0,-0.879 c 0,-0.227 0,-0.358 0.003,-0.398 0.025,-0.203 0.087,-0.305 0.185,-0.305 0.021,0 0.078,0.011 0.168,0.028 0.025,0.008 0.058,0.012 0.102,0.012 0.17,0 0.255,-0.072 0.255,-0.22 0,-0.059 -0.029,-0.114 -0.085,-0.158 -0.054,-0.044 -0.128,-0.066 -0.21,-0.066 -0.074,0 -0.185,0.009 -0.332,0.029 -0.147,0.021 -0.254,0.032 -0.328,0.032 -0.115,0 -0.247,-0.009 -0.395,-0.027 -0.175,-0.022 -0.29,-0.034 -0.347,-0.034 -0.181,0 -0.272,0.074 -0.272,0.224 0,0.148 0.075,0.22 0.23,0.22 0.038,0 0.09,-0.004 0.16,-0.017 0.07,-0.012 0.123,-0.015 0.16,-0.015 0.111,0 0.176,0.143 0.196,0.432 l 0,0.587 0,0.555 0,0.587 c -0.02,0.282 -0.089,0.424 -0.204,0.424 -0.033,0 -0.086,-0.007 -0.152,-0.023 -0.065,-0.016 -0.114,-0.024 -0.147,-0.024 -0.165,0 -0.243,0.072 -0.243,0.217 0,0.152 0.099,0.227 0.296,0.227 0.086,0 0.148,-0.001 0.18,-0.006 0.143,-0.018 0.237,-0.027 0.279,-0.027 0.037,0 0.09,0.007 0.164,0.017 0.074,0.01 0.132,0.016 0.169,0.016 0.127,0 0.192,-0.088 0.192,-0.262 0,-0.019 0,-0.046 -0.004,-0.08 C 0.369,-0.738 0.369,-0.767 0.369,-0.783 0.366,-0.82 0.361,-0.959 0.356,-1.202 0.353,-1.386 0.353,-1.575 0.353,-1.767"
             style="fill:#fff;fill-opacity:1;fill-rule:nonzero;stroke:none"
             id="path4221"
             inkscape:connector-curvature="0" />
        </g>
        <g
           id="g4223"
           transform="translate(162.3357,360.8264)">
          <path
             d="m 0,0 c 0.3,0 0.55,-0.078 0.754,-0.237 l 0,0.027 c 0,0.168 0.071,0.25 0.214,0.25 0.148,0 0.222,-0.072 0.222,-0.213 0,-0.029 -0.005,-0.098 -0.009,-0.204 -0.016,-0.092 -0.024,-0.181 -0.024,-0.272 0,-0.053 0.004,-0.13 0.017,-0.233 0.011,-0.106 0.016,-0.183 0.016,-0.238 0,-0.172 -0.074,-0.255 -0.218,-0.255 -0.144,0 -0.213,0.07 -0.218,0.215 l 0,0.223 c -0.003,0.135 -0.085,0.249 -0.237,0.345 -0.148,0.099 -0.327,0.146 -0.533,0.146 -0.205,0 -0.381,-0.05 -0.521,-0.157 -0.139,-0.105 -0.209,-0.238 -0.209,-0.394 0,-0.289 0.201,-0.46 0.594,-0.512 l 0.394,-0.057 c 0.767,-0.103 1.152,-0.421 1.152,-0.952 0,-0.325 -0.122,-0.585 -0.372,-0.786 -0.246,-0.198 -0.571,-0.301 -0.969,-0.301 -0.373,0 -0.692,0.106 -0.968,0.32 l 0,-0.13 c 0,-0.162 -0.077,-0.243 -0.229,-0.243 -0.168,0 -0.25,0.092 -0.25,0.277 0,-0.032 0.012,0.085 0.041,0.349 0.009,0.065 0.012,0.128 0.012,0.189 0,0.109 -0.008,0.209 -0.024,0.306 -0.021,0.094 -0.029,0.17 -0.029,0.224 0,0.156 0.074,0.233 0.217,0.233 0.094,0 0.152,-0.02 0.176,-0.066 0.025,-0.045 0.042,-0.164 0.046,-0.358 0.003,-0.193 0.106,-0.351 0.303,-0.474 0.197,-0.119 0.451,-0.18 0.755,-0.18 0.221,0 0.406,0.055 0.549,0.168 0.145,0.113 0.214,0.254 0.214,0.427 0,0.304 -0.242,0.481 -0.726,0.532 -0.463,0.05 -0.82,0.14 -1.062,0.273 -0.243,0.134 -0.365,0.367 -0.365,0.699 0,0.316 0.118,0.571 0.357,0.766 C -0.693,-0.099 -0.381,0 0,0"
             style="fill:#fff;fill-opacity:1;fill-rule:nonzero;stroke:none"
             id="path4225"
             inkscape:connector-curvature="0" />
        </g>
        <g
           id="g4227"
           transform="translate(164.8496,359.4969)">
          <path
             d="m 0,0 c 0,-0.062 0.05,-0.094 0.148,-0.094 l 1.62,0 c 0.093,0 0.143,0.032 0.143,0.094 0,0.238 -0.09,0.447 -0.27,0.622 C 1.46,0.796 1.246,0.884 1.001,0.884 0.751,0.884 0.521,0.793 0.312,0.611 0.102,0.429 0,0.226 0,0 M 2.448,-0.168 C 2.448,-0.34 2.44,-0.445 2.416,-0.484 2.396,-0.52 2.331,-0.539 2.219,-0.539 l -2.149,0 c -0.061,0 -0.098,-0.009 -0.115,-0.026 -0.02,-0.015 -0.028,-0.042 -0.028,-0.077 0,-0.339 0.102,-0.62 0.302,-0.848 0.206,-0.227 0.456,-0.338 0.759,-0.338 0.197,0 0.381,0.053 0.547,0.16 0.163,0.11 0.27,0.245 0.319,0.414 l 0.062,0.197 c 0.033,0.105 0.106,0.16 0.225,0.16 0.164,0 0.25,-0.087 0.25,-0.257 0,-0.294 -0.148,-0.552 -0.447,-0.78 -0.295,-0.226 -0.636,-0.342 -1.013,-0.342 -0.471,0 -0.849,0.16 -1.127,0.476 -0.279,0.32 -0.42,0.744 -0.42,1.281 0,0.548 0.149,0.995 0.448,1.335 0.295,0.343 0.685,0.514 1.161,0.514 0.422,0 0.771,-0.14 1.045,-0.423 0.275,-0.283 0.41,-0.642 0.41,-1.075"
             style="fill:#fff;fill-opacity:1;fill-rule:nonzero;stroke:none"
             id="path4229"
             inkscape:connector-curvature="0" />
        </g>
        <g
           id="g4231"
           transform="translate(169.2213,360.8264)">
          <path
             d="m 0,0 c 0.299,0 0.55,-0.078 0.751,-0.237 l 0,0.027 c 0,0.168 0.073,0.25 0.216,0.25 0.148,0 0.222,-0.072 0.222,-0.213 0,-0.029 -0.004,-0.098 -0.008,-0.204 -0.016,-0.092 -0.024,-0.181 -0.024,-0.272 0,-0.053 0.003,-0.13 0.016,-0.233 0.012,-0.106 0.016,-0.183 0.016,-0.238 0,-0.172 -0.07,-0.255 -0.216,-0.255 -0.145,0 -0.219,0.07 -0.222,0.215 l 0,0.223 c -0.005,0.135 -0.082,0.249 -0.234,0.345 -0.148,0.099 -0.328,0.146 -0.53,0.146 -0.208,0 -0.381,-0.05 -0.524,-0.157 -0.14,-0.105 -0.209,-0.238 -0.209,-0.394 0,-0.289 0.196,-0.46 0.594,-0.512 l 0.394,-0.057 c 0.767,-0.103 1.152,-0.421 1.152,-0.952 0,-0.325 -0.122,-0.585 -0.368,-0.786 -0.251,-0.198 -0.571,-0.301 -0.972,-0.301 -0.37,0 -0.694,0.106 -0.969,0.32 l 0,-0.13 c 0,-0.162 -0.077,-0.243 -0.229,-0.243 -0.168,0 -0.251,0.092 -0.251,0.277 0,-0.032 0.013,0.085 0.042,0.349 0.007,0.065 0.012,0.128 0.012,0.189 0,0.109 -0.008,0.209 -0.025,0.306 -0.02,0.094 -0.029,0.17 -0.029,0.224 0,0.156 0.075,0.233 0.218,0.233 0.094,0 0.152,-0.02 0.176,-0.066 0.025,-0.045 0.041,-0.164 0.046,-0.358 0.004,-0.193 0.106,-0.351 0.303,-0.474 0.197,-0.119 0.451,-0.18 0.755,-0.18 0.22,0 0.406,0.055 0.549,0.168 0.144,0.113 0.214,0.254 0.214,0.427 0,0.304 -0.242,0.481 -0.726,0.532 -0.464,0.05 -0.821,0.14 -1.062,0.273 -0.243,0.134 -0.365,0.367 -0.365,0.699 0,0.316 0.118,0.571 0.356,0.766 C -0.693,-0.099 -0.381,0 0,0"
             style="fill:#fff;fill-opacity:1;fill-rule:nonzero;stroke:none"
             id="path4233"
             inkscape:connector-curvature="0" />
        </g>
        <g
           id="g4235"
           transform="translate(174.774,359.5632)">
          <path
             d="M 0,0 C 0,0.182 0.111,0.287 0.336,0.314 0.312,0.469 0.238,0.594 0.111,0.683 -0.021,0.775 -0.185,0.818 -0.39,0.818 c -0.311,0 -0.561,-0.124 -0.75,-0.372 -0.189,-0.248 -0.287,-0.574 -0.287,-0.985 0,-0.421 0.09,-0.753 0.27,-0.995 0.176,-0.242 0.423,-0.361 0.739,-0.361 0.201,0 0.373,0.055 0.521,0.169 0.143,0.111 0.245,0.267 0.299,0.465 0.045,0.157 0.074,0.248 0.082,0.27 0.049,0.091 0.123,0.135 0.217,0.135 0.078,0 0.14,-0.026 0.189,-0.075 0.049,-0.05 0.073,-0.111 0.073,-0.189 0,-0.111 -0.036,-0.246 -0.106,-0.406 -0.07,-0.155 -0.159,-0.287 -0.259,-0.391 -0.262,-0.282 -0.607,-0.425 -1.033,-0.425 -0.458,0 -0.828,0.164 -1.107,0.488 -0.283,0.324 -0.423,0.75 -0.423,1.275 0,0.558 0.144,1.005 0.435,1.338 0.291,0.336 0.677,0.504 1.157,0.504 0.361,0 0.66,-0.099 0.897,-0.292 0.238,-0.196 0.358,-0.445 0.358,-0.747 0,-0.167 -0.046,-0.302 -0.136,-0.412 -0.094,-0.107 -0.209,-0.16 -0.357,-0.16 -0.11,0 -0.204,0.031 -0.278,0.102 C 0.037,-0.181 0,-0.097 0,0"
             style="fill:#fff;fill-opacity:1;fill-rule:nonzero;stroke:none"
             id="path4237"
             inkscape:connector-curvature="0" />
        </g>
        <g
           id="g4239"
           transform="translate(177.8413,360.3811)">
          <path
             d="m 0,0 c -0.315,0 -0.566,-0.109 -0.747,-0.33 -0.18,-0.221 -0.278,-0.534 -0.294,-0.939 l 0,-0.086 c 0,-0.423 0.089,-0.755 0.265,-0.997 0.178,-0.242 0.428,-0.36 0.747,-0.36 0.332,0 0.591,0.118 0.78,0.36 0.184,0.242 0.279,0.574 0.279,1 C 1.03,-0.449 0.685,0 0,0 m -0.037,-3.16 c -0.472,0 -0.849,0.164 -1.136,0.493 -0.283,0.323 -0.422,0.762 -0.422,1.312 0,0.547 0.139,0.984 0.427,1.312 0.287,0.326 0.669,0.489 1.152,0.489 0.492,0 0.877,-0.161 1.161,-0.48 0.283,-0.317 0.426,-0.752 0.426,-1.301 0,-0.549 -0.148,-0.99 -0.439,-1.324 C 0.837,-2.992 0.447,-3.16 -0.037,-3.16"
             style="fill:#fff;fill-opacity:1;fill-rule:nonzero;stroke:none"
             id="path4241"
             inkscape:connector-curvature="0" />
        </g>
        <g
           id="g4243"
           transform="translate(180.9701,360.5058)">
          <path
             d="M 0,0 0,-0.193 C 0.271,0.15 0.632,0.32 1.08,0.32 1.325,0.32 1.555,0.259 1.768,0.136 1.986,0.013 2.133,-0.143 2.206,-0.328 2.273,-0.48 2.301,-0.678 2.301,-0.927 l 0,-1.283 c 0,-0.193 0.004,-0.307 0.008,-0.346 0.025,-0.153 0.082,-0.228 0.18,-0.228 0.042,0 0.094,0.004 0.16,0.016 0.066,0.013 0.111,0.016 0.14,0.016 0.057,0 0.107,-0.019 0.152,-0.059 0.041,-0.038 0.065,-0.09 0.065,-0.15 0,-0.067 -0.028,-0.123 -0.081,-0.168 -0.054,-0.045 -0.12,-0.066 -0.197,-0.066 -0.062,0 -0.168,0.009 -0.313,0.027 -0.142,0.019 -0.278,0.026 -0.405,0.026 -0.114,0 -0.214,-0.004 -0.288,-0.013 -0.225,-0.027 -0.343,-0.04 -0.359,-0.04 -0.177,0 -0.268,0.078 -0.268,0.234 0,0.142 0.079,0.209 0.235,0.209 0.036,0 0.077,-0.003 0.122,-0.012 0.086,-0.019 0.143,-0.029 0.164,-0.029 0.11,0 0.168,0.128 0.18,0.374 l 0,0.344 0,0.41 0,0.513 c 0,0.242 -0.012,0.406 -0.032,0.496 -0.042,0.17 -0.128,0.303 -0.263,0.396 -0.147,0.104 -0.315,0.155 -0.504,0.155 -0.361,0 -0.619,-0.126 -0.775,-0.383 -0.106,-0.177 -0.16,-0.475 -0.16,-0.898 l 0,-0.898 c 0,-0.197 0.013,-0.332 0.041,-0.405 0.025,-0.071 0.073,-0.108 0.148,-0.108 0.037,0 0.086,0.008 0.146,0.023 0.067,0.014 0.116,0.022 0.157,0.022 0.139,0 0.209,-0.074 0.209,-0.225 0,-0.146 -0.09,-0.218 -0.27,-0.218 -0.038,0 -0.152,0.013 -0.349,0.04 -0.103,0.013 -0.209,0.02 -0.333,0.02 -0.094,0 -0.221,-0.008 -0.376,-0.027 -0.202,-0.023 -0.312,-0.033 -0.34,-0.033 -0.19,0 -0.284,0.075 -0.284,0.23 0,0.144 0.074,0.213 0.221,0.213 0.021,0 0.067,-0.006 0.127,-0.019 0.062,-0.013 0.124,-0.022 0.181,-0.022 0.14,0 0.209,0.133 0.214,0.394 l 0,0.751 0,0.815 0,0.235 c -0.009,0.155 -0.029,0.258 -0.058,0.316 -0.028,0.056 -0.082,0.083 -0.156,0.083 -0.029,0 -0.078,-0.006 -0.139,-0.017 -0.061,-0.015 -0.111,-0.022 -0.139,-0.022 -0.165,0 -0.251,0.074 -0.251,0.22 0,0.15 0.103,0.223 0.304,0.223 0.029,0 0.049,-0.001 0.069,-0.006 l 0.251,-0.027 c 0.069,0 0.135,0.006 0.188,0.018 0.114,0.011 0.176,0.015 0.181,0.015 C -0.065,0.205 0,0.138 0,0"
             style="fill:#fff;fill-opacity:1;fill-rule:nonzero;stroke:none"
             id="path4245"
             inkscape:connector-curvature="0" />
        </g>
        <g
           id="g4247"
           transform="translate(186.1132,358.2689)">
          <path
             d="m 0,0 0,0.432 c 0.004,0.185 0.086,0.277 0.246,0.277 0.156,0 0.234,-0.104 0.234,-0.312 0,-0.489 -0.061,-0.832 -0.189,-1.027 -0.169,-0.258 -0.447,-0.39 -0.837,-0.39 -0.357,0 -0.611,0.116 -0.762,0.345 -0.111,0.167 -0.169,0.449 -0.169,0.849 l 0,1.62 c 0,0.094 -0.045,0.144 -0.131,0.144 l -0.221,0 c -0.074,0 -0.135,0.024 -0.185,0.07 -0.049,0.047 -0.073,0.104 -0.073,0.172 0,0.062 0.024,0.121 0.073,0.167 0.05,0.051 0.098,0.077 0.16,0.077 l 0.263,0 c 0.078,0 0.114,0.043 0.114,0.127 l 0,0.694 c 0,0.173 0.087,0.259 0.264,0.259 0.159,0 0.24,-0.086 0.24,-0.259 l 0,-0.721 c 0,-0.066 0.042,-0.1 0.124,-0.1 l 0.734,0 c 0.172,0 0.257,-0.08 0.257,-0.236 0,-0.168 -0.089,-0.25 -0.278,-0.25 l -0.742,0 c -0.061,0 -0.095,-0.05 -0.095,-0.144 l 0,-1.659 c 0,-0.473 0.161,-0.709 0.472,-0.709 0.321,0 0.488,0.189 0.501,0.574"
             style="fill:#fff;fill-opacity:1;fill-rule:nonzero;stroke:none"
             id="path4249"
             inkscape:connector-curvature="0" />
        </g>
        <g
           id="g4251"
           transform="translate(187.9585,360.5202)">
          <path
             d="m 0,0 0,-0.186 c 0.234,0.327 0.545,0.492 0.939,0.492 0.312,0 0.57,-0.087 0.763,-0.265 0.197,-0.179 0.295,-0.408 0.295,-0.685 0,-0.198 -0.049,-0.359 -0.148,-0.484 -0.098,-0.125 -0.229,-0.186 -0.393,-0.186 -0.103,0 -0.188,0.033 -0.263,0.097 -0.074,0.06 -0.107,0.138 -0.107,0.227 0,0.074 0.025,0.137 0.083,0.193 0.053,0.057 0.115,0.086 0.184,0.086 0.016,0 0.046,-0.009 0.09,-0.021 0.024,0.053 0.041,0.104 0.041,0.148 0,0.131 -0.057,0.242 -0.172,0.332 -0.114,0.088 -0.258,0.133 -0.43,0.133 C 0.534,-0.119 0.299,-0.277 0.18,-0.59 0.107,-0.785 0.074,-1.076 0.074,-1.468 l 0,-0.445 c 0,-0.304 0,-0.471 0.004,-0.509 0.025,-0.256 0.094,-0.385 0.214,-0.385 0.056,0 0.118,0.01 0.184,0.024 0.048,0.014 0.09,0.017 0.127,0.017 0.148,0 0.222,-0.069 0.222,-0.211 0,-0.154 -0.095,-0.232 -0.28,-0.232 l -0.028,0 c -0.066,0 -0.169,0.009 -0.304,0.023 -0.139,0.015 -0.242,0.022 -0.311,0.022 -0.177,0 -0.321,-0.004 -0.423,-0.012 l -0.377,-0.033 c -0.185,0 -0.279,0.078 -0.279,0.234 0,0.141 0.086,0.209 0.258,0.209 0.045,0 0.082,0 0.102,-0.006 l 0.103,-0.019 c 0.045,-0.012 0.078,-0.016 0.094,-0.016 0.116,0 0.177,0.104 0.185,0.312 l 0,0.344 -0.02,1.534 c -0.013,0.264 -0.077,0.398 -0.201,0.398 -0.037,0 -0.087,-0.004 -0.148,-0.017 -0.065,-0.012 -0.115,-0.016 -0.147,-0.016 -0.152,0 -0.226,0.07 -0.226,0.211 0,0.154 0.099,0.232 0.291,0.232 0.045,0 0.115,-0.004 0.201,-0.016 0.09,-0.011 0.16,-0.017 0.205,-0.017 0.037,0 0.094,0.006 0.176,0.017 0.033,0.012 0.078,0.016 0.129,0.016 C -0.062,0.191 0,0.13 0,0"
             style="fill:#fff;fill-opacity:1;fill-rule:nonzero;stroke:none"
             id="path4253"
             inkscape:connector-curvature="0" />
        </g>
        <g
           id="g4255"
           transform="translate(190.8658,359.4969)">
          <path
             d="m 0,0 c 0,-0.062 0.049,-0.094 0.152,-0.094 l 1.616,0 c 0.098,0 0.144,0.032 0.144,0.094 0,0.238 -0.091,0.447 -0.271,0.622 C 1.46,0.796 1.246,0.884 1.004,0.884 0.751,0.884 0.521,0.793 0.312,0.611 0.106,0.429 0,0.226 0,0 M 2.453,-0.168 C 2.453,-0.34 2.441,-0.445 2.42,-0.484 2.396,-0.52 2.33,-0.539 2.223,-0.539 l -2.153,0 c -0.061,0 -0.099,-0.009 -0.115,-0.026 -0.02,-0.015 -0.028,-0.042 -0.028,-0.077 0,-0.339 0.102,-0.62 0.303,-0.848 0.205,-0.227 0.46,-0.338 0.758,-0.338 0.201,0 0.382,0.053 0.546,0.16 0.164,0.11 0.271,0.245 0.32,0.414 l 0.061,0.197 c 0.034,0.105 0.107,0.16 0.226,0.16 0.164,0 0.25,-0.087 0.25,-0.257 0,-0.294 -0.148,-0.552 -0.447,-0.78 -0.295,-0.226 -0.632,-0.342 -1.013,-0.342 -0.472,0 -0.849,0.16 -1.123,0.476 -0.283,0.32 -0.423,0.744 -0.423,1.281 0,0.548 0.147,0.995 0.447,1.335 0.299,0.343 0.685,0.514 1.16,0.514 0.423,0 0.772,-0.14 1.046,-0.423 0.275,-0.283 0.415,-0.642 0.415,-1.075"
             style="fill:#fff;fill-opacity:1;fill-rule:nonzero;stroke:none"
             id="path4257"
             inkscape:connector-curvature="0" />
        </g>
        <g
           id="g4259"
           transform="translate(196.5623,360.1577)">
          <path
             d="m 0,0 0,-2.099 c 0.008,-0.231 0.07,-0.346 0.189,-0.346 0.024,0 0.081,0.013 0.168,0.03 0.053,0.008 0.09,0.011 0.111,0.011 0.147,0 0.221,-0.074 0.221,-0.225 0,-0.146 -0.091,-0.218 -0.274,-0.218 -0.071,0 -0.186,0.009 -0.342,0.027 -0.16,0.019 -0.278,0.027 -0.365,0.027 -0.073,0 -0.179,-0.008 -0.324,-0.027 -0.143,-0.018 -0.246,-0.027 -0.315,-0.027 l -0.034,0 c -0.187,0 -0.282,0.078 -0.282,0.238 0,0.137 0.078,0.205 0.234,0.205 l 0.045,0 c 0.029,-0.003 0.049,-0.008 0.061,-0.008 0.115,-0.02 0.181,-0.033 0.197,-0.033 0.083,0 0.137,0.038 0.157,0.107 0.016,0.069 0.032,0.252 0.036,0.545 l 0.008,0.474 0,1.051 0,1.206 c -0.008,0.137 -0.012,0.226 -0.02,0.271 -0.033,0.103 -0.098,0.155 -0.193,0.155 -0.012,0 -0.07,-0.009 -0.172,-0.028 -0.049,-0.007 -0.09,-0.012 -0.123,-0.012 -0.152,0 -0.23,0.074 -0.23,0.22 0,0.151 0.09,0.226 0.27,0.226 0.05,0 0.091,-0.003 0.128,-0.007 l 0.164,-0.024 c 0.069,-0.011 0.132,-0.018 0.181,-0.018 0.044,0 0.114,0.009 0.205,0.026 0.086,0.016 0.156,0.023 0.201,0.023 0.102,0 0.155,-0.064 0.155,-0.195 C 0.057,1.528 0.053,1.496 0.049,1.472 0.016,1.127 0,0.635 0,0"
             style="fill:#fff;fill-opacity:1;fill-rule:nonzero;stroke:none"
             id="path4261"
             inkscape:connector-curvature="0" />
        </g>
        <g
           id="g4263"
           transform="translate(198.2805,361.1046)">
          <path
             d="m 0,0 c 0,0.07 -0.045,0.111 -0.131,0.114 l -0.131,0 c -0.091,0.005 -0.173,0.047 -0.242,0.126 -0.07,0.08 -0.107,0.174 -0.107,0.281 0,0.129 0.049,0.233 0.14,0.32 0.085,0.086 0.201,0.132 0.336,0.132 0.151,0 0.278,-0.063 0.381,-0.188 0.102,-0.123 0.151,-0.282 0.151,-0.475 0,-0.374 -0.138,-0.743 -0.417,-1.108 -0.111,-0.139 -0.196,-0.207 -0.271,-0.207 -0.09,0 -0.135,0.046 -0.135,0.133 0,0.031 0.028,0.08 0.082,0.148 0.082,0.113 0.164,0.244 0.233,0.394 C -0.037,-0.183 0,-0.074 0,0"
             style="fill:#fff;fill-opacity:1;fill-rule:nonzero;stroke:none"
             id="path4265"
             inkscape:connector-curvature="0" />
        </g>
        <g
           id="g4267"
           transform="translate(199.9335,359.4969)">
          <path
             d="m 0,0 c 0,-0.062 0.049,-0.094 0.152,-0.094 l 1.616,0 c 0.094,0 0.143,0.032 0.143,0.094 0,0.238 -0.09,0.447 -0.27,0.622 C 1.459,0.796 1.246,0.884 1.001,0.884 0.75,0.884 0.521,0.793 0.311,0.611 0.103,0.429 0,0.226 0,0 M 2.452,-0.168 C 2.452,-0.34 2.44,-0.445 2.415,-0.484 2.395,-0.52 2.329,-0.539 2.218,-0.539 l -2.149,0 c -0.061,0 -0.098,-0.009 -0.114,-0.026 -0.02,-0.015 -0.029,-0.042 -0.029,-0.077 0,-0.339 0.103,-0.62 0.303,-0.848 0.205,-0.227 0.456,-0.338 0.759,-0.338 0.196,0 0.381,0.053 0.546,0.16 0.164,0.11 0.27,0.245 0.319,0.414 l 0.062,0.197 c 0.033,0.105 0.107,0.16 0.225,0.16 0.165,0 0.251,-0.087 0.251,-0.257 0,-0.294 -0.147,-0.552 -0.447,-0.78 C 1.648,-2.16 1.308,-2.276 0.93,-2.276 c -0.47,0 -0.849,0.16 -1.127,0.476 -0.279,0.32 -0.419,0.744 -0.419,1.281 0,0.548 0.148,0.995 0.447,1.335 C 0.127,1.159 0.517,1.33 0.992,1.33 1.414,1.33 1.764,1.19 2.038,0.907 2.312,0.624 2.452,0.265 2.452,-0.168"
             style="fill:#fff;fill-opacity:1;fill-rule:nonzero;stroke:none"
             id="path4269"
             inkscape:connector-curvature="0" />
        </g>
        <g
           id="g4271"
           transform="translate(203.4969,358.0122)">
          <path
             d="M 0,0 0.938,1.081 0,2.195 C -0.062,2.268 -0.14,2.301 -0.229,2.301 -0.263,2.301 -0.292,2.3 -0.312,2.293 L -0.422,2.264 C -0.444,2.256 -0.471,2.256 -0.521,2.256 c -0.148,0 -0.221,0.07 -0.221,0.215 0,0.152 0.094,0.227 0.279,0.227 l 0.019,0 c 0.005,0 0.116,-0.007 0.337,-0.023 0.111,-0.015 0.205,-0.021 0.283,-0.021 0.078,0 0.189,0.008 0.333,0.022 0.143,0.015 0.25,0.022 0.323,0.022 0.185,0 0.276,-0.075 0.276,-0.227 0,-0.145 -0.087,-0.215 -0.255,-0.215 -0.037,0 -0.07,0.004 -0.102,0.015 l -0.103,0.03 -0.041,0 C 0.591,2.301 0.583,2.297 0.583,2.288 0.591,2.26 0.611,2.228 0.644,2.19 L 1.255,1.44 1.899,2.19 C 1.94,2.237 1.96,2.271 1.96,2.288 1.956,2.297 1.943,2.301 1.923,2.301 1.903,2.301 1.866,2.293 1.817,2.278 1.764,2.262 1.726,2.256 1.698,2.256 1.538,2.256 1.46,2.33 1.46,2.481 1.46,2.627 1.555,2.698 1.743,2.698 1.734,2.698 1.854,2.691 2.1,2.666 2.198,2.658 2.305,2.654 2.42,2.654 c 0.11,0 0.229,0.008 0.356,0.022 0.123,0.015 0.214,0.022 0.271,0.022 0.197,0 0.295,-0.072 0.295,-0.223 C 3.342,2.33 3.264,2.256 3.113,2.256 3.076,2.256 3.023,2.262 2.957,2.278 2.887,2.293 2.838,2.301 2.801,2.301 2.69,2.301 2.542,2.195 2.354,1.977 L 1.567,1.083 2.62,-0.162 c 0.062,-0.076 0.14,-0.115 0.231,-0.115 0.028,0 0.069,0.002 0.122,0.01 0.058,0.009 0.099,0.009 0.128,0.009 0.159,0 0.241,-0.069 0.241,-0.211 0,-0.155 -0.095,-0.232 -0.283,-0.232 l -0.053,0 -0.267,0.033 C 2.67,-0.66 2.562,-0.655 2.42,-0.655 c -0.124,0 -0.246,-0.006 -0.365,-0.02 l -0.246,-0.026 -0.075,0 c -0.208,0 -0.316,0.07 -0.316,0.211 0,0.158 0.082,0.232 0.251,0.232 0.057,0 0.14,-0.006 0.251,-0.02 0.007,-0.005 0.023,-0.005 0.045,-0.005 0.045,0 0.069,0.016 0.069,0.054 0,0.012 -0.008,0.027 -0.02,0.04 l -0.021,0.025 -0.75,0.88 -0.764,-0.88 c -0.032,-0.032 -0.044,-0.062 -0.044,-0.08 0,-0.023 0.02,-0.033 0.065,-0.033 0.033,0 0.078,0.002 0.144,0.01 0.061,0.009 0.107,0.009 0.139,0.009 0.193,0 0.292,-0.074 0.292,-0.232 0,-0.141 -0.099,-0.211 -0.292,-0.211 l -0.094,0 -0.27,0.026 c -0.136,0.014 -0.255,0.02 -0.358,0.02 -0.081,0 -0.175,-0.006 -0.29,-0.02 -0.152,-0.018 -0.267,-0.026 -0.337,-0.026 -0.188,0 -0.283,0.074 -0.283,0.224 0,0.148 0.078,0.219 0.243,0.219 0.028,0 0.069,0 0.122,-0.006 0.053,-0.003 0.094,-0.006 0.119,-0.006 0.086,0 0.209,0.09 0.365,0.27"
             style="fill:#fff;fill-opacity:1;fill-rule:nonzero;stroke:none"
             id="path4273"
             inkscape:connector-curvature="0" />
        </g>
        <g
           id="g4275"
           transform="translate(208.9928,359.5632)">
          <path
             d="M 0,0 C 0,0.182 0.114,0.287 0.336,0.314 0.315,0.469 0.242,0.594 0.11,0.683 c -0.127,0.092 -0.296,0.135 -0.496,0.135 -0.312,0 -0.563,-0.124 -0.755,-0.372 -0.189,-0.248 -0.283,-0.574 -0.283,-0.985 0,-0.421 0.086,-0.753 0.267,-0.995 0.18,-0.242 0.426,-0.361 0.742,-0.361 0.197,0 0.369,0.055 0.517,0.169 0.148,0.111 0.25,0.267 0.303,0.465 0.045,0.157 0.07,0.248 0.078,0.27 0.049,0.091 0.123,0.135 0.218,0.135 0.077,0 0.14,-0.026 0.188,-0.075 0.054,-0.05 0.078,-0.111 0.078,-0.189 0,-0.111 -0.037,-0.246 -0.11,-0.406 -0.07,-0.155 -0.156,-0.287 -0.255,-0.391 -0.266,-0.282 -0.611,-0.425 -1.034,-0.425 -0.459,0 -0.829,0.164 -1.11,0.488 -0.283,0.324 -0.423,0.75 -0.423,1.275 0,0.558 0.148,1.005 0.435,1.338 0.291,0.336 0.677,0.504 1.16,0.504 0.357,0 0.657,-0.099 0.898,-0.292 0.239,-0.196 0.357,-0.445 0.357,-0.747 0,-0.167 -0.044,-0.302 -0.139,-0.412 -0.091,-0.107 -0.209,-0.16 -0.353,-0.16 -0.114,0 -0.205,0.031 -0.279,0.102 C 0.036,-0.181 0,-0.097 0,0"
             style="fill:#fff;fill-opacity:1;fill-rule:nonzero;stroke:none"
             id="path4277"
             inkscape:connector-curvature="0" />
        </g>
        <g
           id="g4279"
           transform="translate(211.53,360.1577)">
          <path
             d="m 0,0 0,-2.099 c 0.004,-0.231 0.066,-0.346 0.186,-0.346 0.028,0 0.085,0.013 0.171,0.03 0.054,0.008 0.09,0.011 0.107,0.011 0.152,0 0.226,-0.074 0.226,-0.225 0,-0.146 -0.091,-0.218 -0.275,-0.218 -0.074,0 -0.189,0.009 -0.345,0.027 -0.156,0.019 -0.278,0.027 -0.36,0.027 -0.074,0 -0.181,-0.008 -0.325,-0.027 -0.142,-0.018 -0.25,-0.027 -0.315,-0.027 l -0.033,0 c -0.189,0 -0.283,0.078 -0.283,0.238 0,0.137 0.073,0.205 0.229,0.205 l 0.049,0 c 0.025,-0.003 0.046,-0.008 0.062,-0.008 0.111,-0.02 0.18,-0.033 0.197,-0.033 0.082,0 0.132,0.038 0.152,0.107 0.021,0.069 0.033,0.252 0.036,0.545 l 0.009,0.474 0,1.051 0,1.206 c -0.005,0.137 -0.012,0.226 -0.02,0.271 -0.033,0.103 -0.095,0.155 -0.189,0.155 -0.012,0 -0.074,-0.009 -0.176,-0.028 -0.05,-0.007 -0.091,-0.012 -0.12,-0.012 -0.156,0 -0.229,0.074 -0.229,0.22 0,0.151 0.086,0.226 0.266,0.226 0.053,0 0.095,-0.003 0.131,-0.007 l 0.161,-0.024 c 0.073,-0.011 0.135,-0.018 0.184,-0.018 0.046,0 0.11,0.009 0.201,0.026 0.09,0.016 0.16,0.023 0.201,0.023 0.106,0 0.156,-0.064 0.156,-0.195 0,-0.047 0,-0.079 -0.004,-0.103 C 0.016,1.127 0,0.635 0,0"
             style="fill:#fff;fill-opacity:1;fill-rule:nonzero;stroke:none"
             id="path4281"
             inkscape:connector-curvature="0" />
        </g>
        <g
           id="g4283"
           transform="translate(215.3197,357.5059)">
          <path
             d="m 0,0 0,0.208 c -0.242,-0.327 -0.594,-0.493 -1.062,-0.493 -0.529,0 -0.903,0.166 -1.108,0.493 -0.089,0.145 -0.138,0.315 -0.146,0.508 -0.005,0.094 -0.009,0.291 -0.009,0.595 l 0,0.559 c 0,0.617 -0.065,0.924 -0.197,0.924 -0.025,0 -0.069,-0.003 -0.127,-0.009 -0.062,-0.007 -0.107,-0.011 -0.14,-0.011 -0.159,0 -0.238,0.075 -0.238,0.22 0,0.141 0.099,0.21 0.291,0.21 0.046,0 0.112,-0.003 0.201,-0.015 0.087,-0.011 0.153,-0.017 0.198,-0.017 0.04,0 0.11,0.009 0.208,0.021 0.066,0.008 0.107,0.011 0.115,0.011 0.14,0 0.209,-0.085 0.209,-0.253 l 0,-0.144 0,-0.436 -0.02,-0.501 0,-0.438 c 0,-0.393 0.033,-0.675 0.095,-0.845 0.102,-0.283 0.353,-0.424 0.741,-0.424 0.198,0 0.365,0.045 0.514,0.13 0.151,0.087 0.254,0.203 0.311,0.349 0.074,0.175 0.111,0.509 0.111,0.999 l 0,0.37 0,0.44 C -0.078,2.666 -0.136,2.774 -0.23,2.774 l -0.122,0 -0.083,0 c -0.156,0 -0.233,0.067 -0.233,0.203 0,0.152 0.086,0.227 0.262,0.227 0.041,0 0.103,-0.003 0.185,-0.011 0.082,-0.009 0.147,-0.012 0.184,-0.012 0.037,0 0.091,0.003 0.165,0.012 0.073,0.008 0.126,0.011 0.16,0.011 0.134,0 0.205,-0.069 0.205,-0.214 C 0.493,2.926 0.488,2.877 0.476,2.84 0.455,2.672 0.443,2.418 0.443,2.083 l 0,-1.044 C 0.443,0.765 0.447,0.611 0.452,0.581 0.471,0.343 0.537,0.223 0.64,0.223 c 0.033,0 0.078,0.005 0.135,0.014 0.058,0.008 0.103,0.011 0.135,0.011 0.152,0 0.23,-0.071 0.23,-0.219 0,-0.15 -0.094,-0.224 -0.284,-0.224 -0.04,0 -0.102,0.004 -0.176,0.013 -0.114,0.014 -0.179,0.02 -0.209,0.02 -0.016,0 -0.061,-0.004 -0.143,-0.013 C 0.275,-0.191 0.23,-0.195 0.189,-0.195 0.062,-0.195 0,-0.13 0,0"
             style="fill:#fff;fill-opacity:1;fill-rule:nonzero;stroke:none"
             id="path4285"
             inkscape:connector-curvature="0" />
        </g>
        <g
           id="g4287"
           transform="translate(218.1578,360.8264)">
          <path
             d="m 0,0 c 0.299,0 0.549,-0.078 0.751,-0.237 l 0,0.027 c 0,0.168 0.073,0.25 0.216,0.25 0.148,0 0.222,-0.072 0.222,-0.213 0,-0.029 0,-0.098 -0.007,-0.204 -0.017,-0.092 -0.025,-0.181 -0.025,-0.272 0,-0.053 0.008,-0.13 0.016,-0.233 0.013,-0.106 0.016,-0.183 0.016,-0.238 0,-0.172 -0.069,-0.255 -0.217,-0.255 -0.144,0 -0.218,0.07 -0.221,0.215 l 0,0.223 c -0.005,0.135 -0.083,0.249 -0.234,0.345 -0.151,0.099 -0.328,0.146 -0.53,0.146 -0.208,0 -0.384,-0.05 -0.524,-0.157 -0.139,-0.105 -0.209,-0.238 -0.209,-0.394 0,-0.289 0.197,-0.46 0.594,-0.512 l 0.394,-0.057 c 0.766,-0.103 1.152,-0.421 1.152,-0.952 0,-0.325 -0.123,-0.585 -0.369,-0.786 -0.25,-0.198 -0.574,-0.301 -0.971,-0.301 -0.374,0 -0.694,0.106 -0.969,0.32 l 0,-0.13 c 0,-0.162 -0.077,-0.243 -0.229,-0.243 -0.168,0 -0.25,0.092 -0.25,0.277 0,-0.032 0.012,0.085 0.041,0.349 0.008,0.065 0.012,0.128 0.012,0.189 0,0.109 -0.008,0.209 -0.024,0.306 -0.021,0.094 -0.029,0.17 -0.029,0.224 0,0.156 0.07,0.233 0.217,0.233 0.094,0 0.151,-0.02 0.176,-0.066 0.025,-0.045 0.041,-0.164 0.046,-0.358 0.003,-0.193 0.105,-0.351 0.303,-0.474 0.197,-0.119 0.451,-0.18 0.755,-0.18 0.221,0 0.401,0.055 0.549,0.168 0.144,0.113 0.213,0.254 0.213,0.427 0,0.304 -0.241,0.481 -0.726,0.532 -0.467,0.05 -0.819,0.14 -1.062,0.273 -0.242,0.134 -0.364,0.367 -0.364,0.699 0,0.316 0.118,0.571 0.355,0.766 C -0.693,-0.099 -0.381,0 0,0"
             style="fill:#fff;fill-opacity:1;fill-rule:nonzero;stroke:none"
             id="path4289"
             inkscape:connector-curvature="0" />
        </g>
        <g
           id="g4291"
           transform="translate(220.7989,361.0634)">
          <path
             d="m 0,0 c -0.103,0 -0.193,0.038 -0.267,0.111 -0.074,0.074 -0.11,0.164 -0.11,0.267 0,0.104 0.036,0.192 0.11,0.264 C -0.193,0.713 -0.103,0.751 0,0.751 0.102,0.751 0.192,0.713 0.267,0.642 0.34,0.57 0.377,0.482 0.377,0.378 0.377,0.275 0.34,0.185 0.267,0.111 0.192,0.038 0.102,0 0,0 m 0.352,-1.767 0,-0.879 c 0,-0.227 0,-0.358 0.004,-0.398 0.025,-0.203 0.087,-0.305 0.186,-0.305 0.02,0 0.077,0.011 0.167,0.028 0.025,0.008 0.058,0.012 0.102,0.012 0.169,0 0.255,-0.072 0.255,-0.22 0,-0.059 -0.029,-0.114 -0.082,-0.158 -0.057,-0.044 -0.128,-0.066 -0.213,-0.066 -0.073,0 -0.184,0.009 -0.328,0.029 -0.148,0.021 -0.258,0.032 -0.332,0.032 -0.115,0 -0.247,-0.009 -0.39,-0.027 -0.176,-0.022 -0.295,-0.034 -0.353,-0.034 -0.18,0 -0.27,0.074 -0.27,0.224 0,0.148 0.074,0.22 0.229,0.22 0.037,0 0.091,-0.004 0.16,-0.017 0.07,-0.012 0.123,-0.015 0.16,-0.015 0.111,0 0.176,0.143 0.196,0.432 l 0,0.587 0,0.555 0,0.587 c -0.02,0.282 -0.089,0.424 -0.199,0.424 -0.038,0 -0.091,-0.007 -0.157,-0.023 -0.065,-0.016 -0.114,-0.024 -0.143,-0.024 -0.164,0 -0.246,0.072 -0.246,0.217 0,0.152 0.099,0.227 0.295,0.227 0.086,0 0.148,-0.001 0.18,-0.006 0.148,-0.018 0.237,-0.027 0.279,-0.027 0.037,0 0.09,0.007 0.163,0.017 0.079,0.01 0.132,0.016 0.17,0.016 0.132,0 0.192,-0.088 0.192,-0.262 0,-0.019 0,-0.046 -0.004,-0.08 C 0.369,-0.738 0.369,-0.767 0.369,-0.783 0.365,-0.82 0.361,-0.959 0.356,-1.202 0.352,-1.386 0.352,-1.575 0.352,-1.767"
             style="fill:#fff;fill-opacity:1;fill-rule:nonzero;stroke:none"
             id="path4293"
             inkscape:connector-curvature="0" />
        </g>
        <g
           id="g4295"
           transform="translate(223.7391,360.3811)">
          <path
             d="m 0,0 c -0.316,0 -0.566,-0.109 -0.747,-0.33 -0.18,-0.221 -0.279,-0.534 -0.295,-0.939 l 0,-0.086 c 0,-0.423 0.09,-0.755 0.267,-0.997 0.18,-0.242 0.427,-0.36 0.751,-0.36 0.328,0 0.586,0.118 0.775,0.36 0.184,0.242 0.279,0.574 0.279,1 C 1.03,-0.449 0.685,0 0,0 m -0.037,-3.16 c -0.472,0 -0.849,0.164 -1.132,0.493 -0.283,0.323 -0.426,0.762 -0.426,1.312 0,0.547 0.143,0.984 0.426,1.312 0.287,0.326 0.673,0.489 1.153,0.489 0.492,0 0.877,-0.161 1.16,-0.48 C 1.427,-0.351 1.57,-0.786 1.57,-1.335 1.57,-1.884 1.423,-2.325 1.132,-2.659 0.836,-2.992 0.451,-3.16 -0.037,-3.16"
             style="fill:#fff;fill-opacity:1;fill-rule:nonzero;stroke:none"
             id="path4297"
             inkscape:connector-curvature="0" />
        </g>
        <g
           id="g4299"
           transform="translate(226.8685,360.5058)">
          <path
             d="M 0,0 0,-0.193 C 0.27,0.15 0.631,0.32 1.078,0.32 1.324,0.32 1.555,0.259 1.767,0.136 1.985,0.013 2.132,-0.143 2.209,-0.328 2.272,-0.48 2.3,-0.678 2.3,-0.927 l 0,-1.283 c 0,-0.193 0.005,-0.307 0.008,-0.346 0.025,-0.153 0.082,-0.228 0.185,-0.228 0.037,0 0.09,0.004 0.156,0.016 0.065,0.013 0.111,0.016 0.14,0.016 0.057,0 0.11,-0.019 0.151,-0.059 0.045,-0.038 0.066,-0.09 0.066,-0.15 0,-0.067 -0.029,-0.123 -0.083,-0.168 -0.053,-0.045 -0.118,-0.066 -0.197,-0.066 -0.061,0 -0.164,0.009 -0.307,0.027 -0.147,0.019 -0.283,0.026 -0.405,0.026 -0.12,0 -0.214,-0.004 -0.293,-0.013 -0.224,-0.027 -0.343,-0.04 -0.356,-0.04 -0.18,0 -0.271,0.078 -0.271,0.234 0,0.142 0.079,0.209 0.234,0.209 0.037,0 0.079,-0.003 0.123,-0.012 0.086,-0.019 0.143,-0.029 0.165,-0.029 0.11,0 0.172,0.128 0.18,0.374 l 0,0.344 0,0.41 0,0.513 c 0,0.242 -0.013,0.406 -0.033,0.496 -0.042,0.17 -0.127,0.303 -0.262,0.396 -0.149,0.104 -0.316,0.155 -0.505,0.155 -0.361,0 -0.616,-0.126 -0.775,-0.383 C 0.115,-0.665 0.062,-0.963 0.062,-1.386 l 0,-0.898 c 0,-0.197 0.011,-0.332 0.041,-0.405 0.028,-0.071 0.077,-0.108 0.146,-0.108 0.038,0 0.087,0.008 0.148,0.023 0.066,0.014 0.115,0.022 0.156,0.022 0.14,0 0.209,-0.074 0.209,-0.225 0,-0.146 -0.09,-0.218 -0.27,-0.218 -0.033,0 -0.152,0.013 -0.348,0.04 -0.099,0.013 -0.21,0.02 -0.334,0.02 -0.094,0 -0.221,-0.008 -0.377,-0.027 -0.196,-0.023 -0.311,-0.033 -0.336,-0.033 -0.192,0 -0.282,0.075 -0.282,0.23 0,0.144 0.069,0.213 0.217,0.213 0.024,0 0.065,-0.006 0.127,-0.019 0.062,-0.013 0.123,-0.022 0.18,-0.022 0.14,0 0.209,0.133 0.217,0.394 l 0,0.751 0,0.815 0,0.235 c -0.012,0.155 -0.028,0.258 -0.061,0.316 -0.029,0.056 -0.082,0.083 -0.156,0.083 -0.029,0 -0.077,-0.006 -0.139,-0.017 -0.061,-0.015 -0.111,-0.022 -0.14,-0.022 -0.168,0 -0.245,0.074 -0.245,0.22 0,0.15 0.098,0.223 0.299,0.223 0.03,0 0.049,-0.001 0.07,-0.006 l 0.249,-0.027 c 0.071,0 0.136,0.006 0.19,0.018 0.114,0.011 0.176,0.015 0.184,0.015 C -0.066,0.205 0,0.138 0,0"
             style="fill:#fff;fill-opacity:1;fill-rule:nonzero;stroke:none"
             id="path4301"
             inkscape:connector-curvature="0" />
        </g>
        <g
           id="g4303"
           transform="translate(121.7081,422.7603)">
          <path
             d="m 0,0 c 0,1.544 0.164,2.196 2.199,2.196 l 16.1,0 c 1.053,0 -0.411,-4.636 -1.546,-4.636 l -10.733,0 c -0.816,0 -1.464,-0.326 -1.464,-1.79 l 0,-14.472 c 0,-0.731 0.082,-1.464 1.382,-1.464 l 7.235,0 c 2.439,0 0.733,-4.959 -0.567,-4.959 l -6.586,0 c -0.652,0 -1.464,-0.081 -1.464,-0.975 l 0,-28.621 c 0,-0.814 -1.87,-1.627 -2.764,-1.627 C 0.815,-56.348 0,-56.429 0,-54.479 L 0,0 Z"
             style="fill:#fff;fill-opacity:1;fill-rule:nonzero;stroke:none"
             id="path4305"
             inkscape:connector-curvature="0" />
        </g>
        <g
           id="g4307"
           transform="translate(158.9937,390.2359)">
          <path
             d="M 0,0 C 1.139,0 1.464,0 1.139,1.464 -0.73,15.285 -2.195,29.922 -2.436,29.922 l -0.328,0 C -3.006,29.922 -4.47,15.285 -6.34,1.464 -6.668,0 -6.34,0 -5.205,0 L 0,0 Z m 8.783,-22.035 c 0,-1.137 -0.733,-1.462 -1.709,-1.462 -0.406,0 -2.276,0 -2.518,1.218 0,0.488 -0.976,7.156 -2.116,16.342 -0.242,0.895 -0.569,0.895 -0.812,0.895 l -8.456,0 c -0.164,0 -0.57,0 -0.812,-0.895 -1.14,-9.186 -2.116,-15.854 -2.116,-16.342 -0.164,-1.218 -2.116,-1.218 -2.522,-1.218 -0.977,0 -1.706,0.325 -1.706,1.462 0,1.22 7.074,54.398 7.237,55.291 0.243,0.894 0.812,1.464 1.624,1.464 l 5.041,0 c 0.812,0 1.546,-0.57 1.546,-1.464 0.246,-0.893 7.319,-54.071 7.319,-55.291"
             style="fill:#fff;fill-opacity:1;fill-rule:nonzero;stroke:none"
             id="path4309"
             inkscape:connector-curvature="0" />
        </g>
        <g
           id="g4311"
           transform="translate(183.0166,376.0891)">
          <path
             d="m 0,0 c 0.078,-2.358 1.789,-5.367 6.017,-5.367 3.494,0 6.176,3.009 6.176,4.959 0,1.22 4.555,1.871 4.555,-0.57 0,-4.96 -5.45,-9.268 -11.953,-8.536 -5.205,0.65 -9.269,4.39 -9.027,9.514 l 0,39.517 c -0.242,5.282 3.822,8.943 9.027,9.594 6.503,0.814 11.953,-3.58 11.953,-8.54 0,-2.358 -4.555,-1.788 -4.555,-0.568 0,1.95 -2.682,5.042 -6.176,5.042 C 1.789,45.045 0.078,41.953 0,39.677 L 0,0 Z"
             style="fill:#fff;fill-opacity:1;fill-rule:nonzero;stroke:none"
             id="path4313"
             inkscape:connector-curvature="0" />
        </g>
        <g
           id="g4315"
           transform="translate(215.98,371.6176)">
          <path
             d="m 0,0 c -0.811,0.207 -1.386,0.592 -1.386,1.974 l 0,13.882 0,7.48 0,2.03 0,7.479 0,13.884 c 0,1.382 0.575,1.766 1.386,1.973 0,0 15.12,4.719 14.066,4.719 l -18.666,0 c -1.095,0 -1.421,-0.709 -1.421,-1.505 l 0,-55.129 c 0,-0.797 0.326,-1.505 1.421,-1.505 l 18.666,0 C 15.12,-4.718 0,0 0,0"
             style="fill:#fff;fill-opacity:1;fill-rule:nonzero;stroke:none"
             id="path4317"
             inkscape:connector-curvature="0" />
        </g>
        <g
           id="g4319"
           transform="translate(220.7375,395.0704)">
          <path
             d="m 0,0 c 0,-0.153 -0.128,-0.279 -0.279,-0.279 l -2.518,0.212 c -0.151,0 -0.279,0.124 -0.279,0.278 l 0,0.776 c 0,0.156 0.128,0.278 0.279,0.278 l 2.518,0.214 C -0.128,1.479 0,1.353 0,1.2 L 0,0 Z"
             style="fill:#fff;fill-opacity:1;fill-rule:nonzero;stroke:none"
             id="path4321"
             inkscape:connector-curvature="0" />
        </g>
        <g
           id="g4323"
           transform="translate(314.3944,357.8049)">
          <path
             d="m 0,0 -71.94,0 0,68.224 71.94,0 L 0,0 Z"
             style="fill:none;stroke:#fff;stroke-width:1.22300005;stroke-linecap:butt;stroke-linejoin:miter;stroke-miterlimit:10;stroke-dasharray:none;stroke-opacity:1"
             id="path4325"
             inkscape:connector-curvature="0" />
        </g>
      </g>
    </g>
    <text
       y="457.23288"
       x="409.60483"
       style="font-variant:normal;font-weight:normal;font-stretch:normal;font-size:18.33950043px;font-family:'TKFJK M +Kraftstoff';-inkscape-font-specification:Kraftstoff-Regular;writing-mode:lr-tb;fill:#fff;fill-opacity:1;fill-rule:nonzero;stroke:none"
       id="text4327">
      <tspan
         sodipodi:role="line"
         id="tspan4333"
         x="409.60483"
         y="457.23288" />
      <tspan
         sodipodi:role="line"
         x="409.60483"
         y="480.15726"
         id="tspan5353" />
      <tspan
         sodipodi:role="line"
         x="409.60483"
         y="503.08163"
         id="tspan5355">RENNES</tspan>
    </text>
    <use
       x="0"
       y="0"
       xlink:href="#g4171"
       id="use6809" />
    <use
       x="0"
       y="0"
       xlink:href="#text4327"
       id="use6811" />
    <use
       id="use6813"
       xlink:href="#g4171"
       y="0"
       x="0"
       transform="translate(-246.28855,532.16863)"
       width="100%"
       height="100%" />
    <g
       style="font-style:normal;font-weight:normal;font-size:40px;line-height:125%;font-family:sans-serif;letter-spacing:0px;word-spacing:0px;fill:#fff;fill-opacity:1;stroke:none;stroke-width:1px;stroke-linecap:butt;stroke-linejoin:miter;stroke-opacity:1"
       id="text4356">
      <path
         d="m 168.92385,1029.1473 c 4.88,-1.12 4.6,-6.52 4.6,-6.52 -0.04,-1.6 0.4,-6.44 -5.08,-7 -1.72,-0.2 -4.04,-0.16 -4.72,-0.16 -0.96,0 -1.04,0.36 -1.04,1.08 l 0,26.92 c 0,0.96 0.4,0.84 0.88,0.84 0.44,0 1.32,-0.32 1.32,-0.76 l 0,-13.76 c 0,-0.36 0.28,-0.48 0.56,-0.48 l 0.76,0 c 0.24,0 0.4,0.16 0.52,0.48 0.44,1.28 4.56,13.92 4.56,13.92 0,0 0.68,0.68 1.48,0.56 0.84,-0.08 0.92,-0.72 0.92,-0.72 l -4.76,-14.4 z m -4.04,-10.52 c 0,-0.68 0.36,-0.84 0.72,-0.84 0.24,0 1.28,-0.04 2.36,0.08 3.44,0.36 3.48,2.88 3.48,4.56 0.04,1.4 -0.04,4.24 -3.72,4.44 -0.44,0.04 -1.56,0 -2.16,0 -0.6,0 -0.68,-0.32 -0.68,-0.72 l 0,-7.52 z"
         style="font-style:normal;font-variant:normal;font-weight:normal;font-stretch:normal;font-size:40px;font-family:Kraftstoff;-inkscape-font-specification:Kraftstoff;fill:#fff;fill-opacity:1"
         id="path4361" />
      <path
         d="m 175.6526,1043.1073 c 0,0.64 0.12,0.96 0.68,1.08 0.04,0 0.16,0 0.2,0 l 0.08,0 c 0.04,0 0.04,0 0.08,0 l 8.72,0 c 0.56,0 -0.16,-2.28 -0.68,-2.28 l -6.12,0 c -0.36,0 -0.68,-0.16 -0.68,-0.84 l 0,-11.68 c 0,-0.48 0.36,-0.56 0.68,-0.56 l 3.48,0 c 0.64,0 1.48,-2.4 0.32,-2.4 l -3.84,0 c -0.6,0 -0.64,-0.32 -0.64,-0.72 l 0,-6.96 c 0,-0.68 0.32,-0.84 0.68,-0.84 l 6.16,0 c 0.52,0 1.28,-2.32 0.76,-2.32 -0.6,0 -9,0 -9,0 l -0.2,0 c -0.56,0.16 -0.68,0.48 -0.68,1.12 l 0,26.4 z"
         style="font-style:normal;font-variant:normal;font-weight:normal;font-stretch:normal;font-size:40px;font-family:Kraftstoff;-inkscape-font-specification:Kraftstoff;fill:#fff;fill-opacity:1"
         id="path4363" />
      <path
         d="m 197.00385,1015.6273 c -0.72,0 -0.92,0.48 -0.92,1.08 0,0 0.04,12.88 0.04,20.68 -2.2,-7 -5.56,-18.72 -6.28,-20.96 0,-0.2 -0.04,-0.32 -0.12,-0.4 -0.16,-0.32 -0.52,-0.44 -0.96,-0.4 l -0.2,0 c -0.48,0 -0.68,0.2 -0.8,0.52 -0.08,0.16 -0.08,0.28 -0.08,0.48 0,0 0,0.08 0,0.08 l 0.04,26.52 c 0,0.56 0.16,1.28 0.72,1.28 0.56,0 1.4,-0.64 1.4,-1.08 l 0,-19.56 c 2.4,7.68 5.92,19.24 6.08,19.6 0.12,0.32 0.28,0.64 0.52,0.84 0.12,0.12 0.24,0.2 0.4,0.2 0.56,0 1.4,-0.64 1.4,-1.08 l 0,-27 c 0,-0.56 -0.52,-0.8 -1.24,-0.8 z"
         style="font-style:normal;font-variant:normal;font-weight:normal;font-stretch:normal;font-size:40px;font-family:Kraftstoff;-inkscape-font-specification:Kraftstoff;fill:#fff;fill-opacity:1"
         id="path4365" />
      <path
         d="m 209.58198,1015.6273 c -0.72,0 -0.92,0.48 -0.92,1.08 0,0 0.04,12.88 0.04,20.68 -2.2,-7 -5.56,-18.72 -6.28,-20.96 0,-0.2 -0.04,-0.32 -0.12,-0.4 -0.16,-0.32 -0.52,-0.44 -0.96,-0.4 l -0.2,0 c -0.48,0 -0.68,0.2 -0.8,0.52 -0.08,0.16 -0.08,0.28 -0.08,0.48 0,0 0,0.08 0,0.08 l 0.04,26.52 c 0,0.56 0.16,1.28 0.72,1.28 0.56,0 1.4,-0.64 1.4,-1.08 l 0,-19.56 c 2.4,7.68 5.92,19.24 6.08,19.6 0.12,0.32 0.28,0.64 0.52,0.84 0.12,0.12 0.24,0.2 0.4,0.2 0.56,0 1.4,-0.64 1.4,-1.08 l 0,-27 c 0,-0.56 -0.52,-0.8 -1.24,-0.8 z"
         style="font-style:normal;font-variant:normal;font-weight:normal;font-stretch:normal;font-size:40px;font-family:Kraftstoff;-inkscape-font-specification:Kraftstoff;fill:#fff;fill-opacity:1"
         id="path4367" />
      <path
         d="m 212.8401,1043.1073 c 0,0.64 0.12,0.96 0.68,1.08 0.04,0 0.16,0 0.2,0 l 0.08,0 c 0.04,0 0.04,0 0.08,0 l 8.72,0 c 0.56,0 -0.16,-2.28 -0.68,-2.28 l -6.12,0 c -0.36,0 -0.68,-0.16 -0.68,-0.84 l 0,-11.68 c 0,-0.48 0.36,-0.56 0.68,-0.56 l 3.48,0 c 0.64,0 1.48,-2.4 0.32,-2.4 l -3.84,0 c -0.6,0 -0.64,-0.32 -0.64,-0.72 l 0,-6.96 c 0,-0.68 0.32,-0.84 0.68,-0.84 l 6.16,0 c 0.52,0 1.28,-2.32 0.76,-2.32 -0.6,0 -9,0 -9,0 l -0.2,0 c -0.56,0.16 -0.68,0.48 -0.68,1.12 l 0,26.4 z"
         style="font-style:normal;font-variant:normal;font-weight:normal;font-stretch:normal;font-size:40px;font-family:Kraftstoff;-inkscape-font-specification:Kraftstoff;fill:#fff;fill-opacity:1"
         id="path4369" />
      <path
         d="m 234.28073,1034.7873 c -0.6,-3.72 -2.24,-6.16 -4.64,-9.24 -1.08,-1.36 -2.52,-3.12 -2.52,-4.72 0,-2.04 0.92,-3.12 2.76,-3.12 1.2,0 2.08,0.72 2.48,1.92 0.08,0.2 0.08,0.2 0.36,0.4 0.6,-0.08 1.28,-0.48 1.72,-0.84 l -0.04,-0.28 c -0.64,-2 -2.56,-3.32 -4.52,-3.32 -2.88,0 -5.04,2.16 -5.04,5.24 0,2.24 1.32,3.88 2.48,5.4 0.2,0.2 0.36,0.44 0.52,0.6 1.72,2.24 3.68,5.04 4.2,8.28 0.28,1.8 0.4,4.16 -0.4,5.76 -0.6,1.24 -2.4,1.44 -3.44,1.24 -0.52,-0.08 -1.68,-0.44 -1.88,-1.96 l -0.04,-0.04 c 0,0 -0.48,-0.08 -1,0.12 -0.44,0.12 -0.92,0.84 -0.8,0.72 0.36,1.72 1.68,3.04 3.44,3.32 0.24,0.08 0.52,0.08 1.6,0.08 1.8,0 3.44,-1.04 4.24,-2.64 1.2,-2.52 0.68,-5.92 0.52,-6.92 z"
         style="font-style:normal;font-variant:normal;font-weight:normal;font-stretch:normal;font-size:40px;font-family:Kraftstoff;-inkscape-font-specification:Kraftstoff;fill:#fff;fill-opacity:1"
         id="path4371" />
    </g>
  </g>
</svg>
